<?xml version="1.0" encoding="UTF-8"?>
<svg version="1.1" xmlns="http://www.w3.org/2000/svg" width="1024" height="1024">
<path d="M0 0 C3.22092193 0.75174953 6.29020372 0.66173017 9.59651184 0.66372681 C10.32540115 0.66547913 11.05429047 0.66723145 11.80526733 0.66903687 C14.20885108 0.67342986 16.61236097 0.67052699 19.01594543 0.66714478 C20.68695591 0.6678184 22.3579663 0.66878892 24.02897644 0.67004395 C27.52757197 0.67151733 31.02614194 0.66937733 34.5247345 0.66470337 C39.01518085 0.65899746 43.50556755 0.6622928 47.99601173 0.66827583 C51.44458977 0.67188359 54.89315357 0.67074202 58.34173203 0.66814804 C59.99798464 0.66747983 61.65423854 0.66830353 63.31048965 0.67062759 C65.62070914 0.67315858 67.93083091 0.66930761 70.24104309 0.66372681 C71.55690399 0.66293121 72.87276489 0.66213562 74.22850037 0.66131592 C77.20505872 0.74722562 77.20505872 0.74722562 79.28938293 -0.46566772 C79.28938293 0.19433228 79.28938293 0.85433228 79.28938293 1.53433228 C80.53461731 1.45054321 81.77985168 1.36675415 83.06282043 1.28042603 C111.03854089 -0.35342057 140.70002086 -0.82891428 168.28938293 4.53433228 C169.16707336 4.70448853 170.04476379 4.87464478 170.9490509 5.04995728 C190.55259692 9.00385094 208.08342527 15.85939361 225.50617981 25.61392212 C227.4404301 26.67030412 227.4404301 26.67030412 230.28938293 27.53433228 C231.63524807 28.8550149 232.96705317 30.19008544 234.28938293 31.53433228 C235.91526977 32.7286398 237.56307991 33.89343878 239.22688293 35.03433228 C270.47218596 57.51266863 293.00961393 92.03630505 299.50422668 130.10855103 C304.5676836 163.30095695 301.93151068 196.36683627 286.28938293 226.53433228 C285.97243469 227.15839966 285.65548645 227.78246704 285.32893372 228.42544556 C271.27316745 255.75731661 245.32539812 280.67271178 216.28938293 291.53433228 C216.91054585 295.90201257 218.57210869 299.47551965 220.57063293 303.35464478 C220.90010925 304.00661835 221.22958557 304.65859192 221.56904602 305.33032227 C222.27307347 306.72229395 222.97973286 308.11293707 223.688797 309.50234985 C225.53671111 313.12398278 227.36537963 316.75531363 229.19563293 320.38589478 C229.55528137 321.09816223 229.91492981 321.81042969 230.28547668 322.54428101 C233.03646271 328.00263445 235.70134764 333.49668483 238.28938293 339.03433228 C242.43827968 347.89828032 246.8051066 356.64251774 251.22053528 365.37612915 C256.24743856 375.32902588 261.10008276 385.35928022 265.91047668 395.41860962 C269.62011548 403.16723656 273.3981782 410.87523564 277.28938293 418.53433228 C277.94938293 418.53433228 278.60938293 418.53433228 279.28938293 418.53433228 C279.40419006 419.41282837 279.51899719 420.29132446 279.63728333 421.19644165 C280.28168741 424.49494132 281.23701014 426.94107622 282.72297668 429.94058228 C283.20701965 430.93187134 283.69106262 431.9231604 284.18977356 432.94448853 C284.69701965 433.96413696 285.20426575 434.9837854 285.72688293 436.03433228 C286.72886854 438.06396252 287.72766872 440.09516906 288.72297668 442.12808228 C289.16697815 443.02204712 289.61097961 443.91601196 290.06843567 444.83706665 C291.28938293 447.53433228 291.28938293 447.53433228 292.32478333 450.8097229 C292.98289502 453.67021184 292.98289502 453.67021184 295.28938293 454.53433228 C296.26325989 456.21743774 296.26325989 456.21743774 297.27766418 458.40151978 C297.83949402 459.59974365 297.83949402 459.59974365 298.41267395 460.82217407 C298.80511292 461.67593628 299.19755188 462.52969849 299.60188293 463.40933228 C300.20310974 464.69867676 300.20310974 464.69867676 300.81648254 466.0140686 C301.98140516 468.51753323 303.13732137 471.02492707 304.28938293 473.53433228 C304.58908997 474.1861145 304.888797 474.83789673 305.19758606 475.50942993 C306.57548157 478.51151554 307.94091532 481.51891474 309.28938293 484.53433228 C309.94938293 484.20433228 310.60938293 483.87433228 311.28938293 483.53433228 C311.37711975 484.52094849 311.46485657 485.5075647 311.55525208 486.52407837 C312.20372626 491.01544341 314.00531346 494.67789047 316.03547668 498.69839478 C316.59223839 499.83104263 316.59223839 499.83104263 317.1602478 500.98657227 C318.33997621 503.38214496 319.53288126 505.7708466 320.72688293 508.15933228 C321.91450362 510.55625874 323.09936129 512.95452504 324.2828064 515.35351562 C325.01767768 516.84087849 325.75544297 518.32681608 326.496521 519.81109619 C331.28938293 529.45096456 331.28938293 529.45096456 331.28938293 533.53433228 C306.53938293 533.53433228 281.78938293 533.53433228 256.28938293 533.53433228 C250.01243371 521.60812875 243.91981616 509.80760984 238.33039856 497.58120728 C237.60046692 496.02273071 237.60046692 496.02273071 236.85578918 494.43276978 C236.43241272 493.51157349 236.00903625 492.5903772 235.5728302 491.64126587 C234.40527339 489.21424749 234.40527339 489.21424749 231.28938293 488.53433228 C231.61938293 487.54433228 231.94938293 486.55433228 232.28938293 485.53433228 C231.08336303 482.51380368 231.08336303 482.51380368 229.35188293 479.34683228 C228.7859845 478.26015259 228.22008606 477.1734729 227.63703918 476.05386353 C227.19231262 475.22241821 226.74758606 474.3909729 226.28938293 473.53433228 C225.62938293 473.53433228 224.96938293 473.53433228 224.28938293 473.53433228 C224.2391095 472.62296509 224.18883606 471.7115979 224.13703918 470.77261353 C223.30776932 464.96479937 220.32761307 459.90705827 217.72688293 454.72183228 C216.70145259 452.65445289 215.67914735 450.5855195 214.66047668 448.51480103 C214.20600159 447.60625366 213.75152649 446.6977063 213.28327942 445.7616272 C212.28938293 443.53433228 212.28938293 443.53433228 212.28938293 441.53433228 C211.62938293 441.20433228 210.96938293 440.87433228 210.28938293 440.53433228 C209.41390563 438.62446265 208.61211325 436.68043187 207.85188293 434.72183228 C205.4405805 428.03119652 205.4405805 428.03119652 200.28938293 423.53433228 C200.61938293 422.54433228 200.94938293 421.55433228 201.28938293 420.53433228 C200.11482321 417.87469911 200.11482321 417.87469911 198.41438293 415.09683228 C195.37780252 409.9063983 195.37780252 409.9063983 194.85383606 407.7015686 C194.15044915 405.00089143 193.02720999 402.6801665 191.81282043 400.16714478 C191.31065002 399.12413208 190.80847961 398.08111938 190.29109192 397.00650024 C189.75427795 395.90193481 189.21746399 394.79736938 188.66438293 393.65933228 C187.84079285 391.95414429 187.84079285 391.95414429 187.00056458 390.21450806 C183.77013166 383.53983902 180.48741635 376.89562313 177.14485168 370.27651978 C174.0420032 364.07082281 171.08924438 357.79049471 168.10749817 351.52603149 C167.65705139 350.58002075 167.20660461 349.63401001 166.74250793 348.65933228 C166.10538879 347.31935181 166.10538879 347.31935181 165.45539856 345.95230103 C164.48591465 343.94188045 163.48608604 341.95428665 162.46125793 339.97183228 C161.28938293 337.53433228 161.28938293 337.53433228 161.28938293 335.53433228 C160.62938293 335.20433228 159.96938293 334.87433228 159.28938293 334.53433228 C158.59500546 332.54378352 157.93328076 330.54177842 157.28938293 328.53433228 C156.31934172 326.51963129 155.32693412 324.5151118 154.28938293 322.53433228 C153.62938293 322.86433228 152.96938293 323.19433228 152.28938293 323.53433228 C152.16176575 322.07446899 152.16176575 322.07446899 152.03157043 320.58511353 C151.3591774 315.90077538 149.46104507 311.95086711 147.41438293 307.72183228 C147.06246887 306.95935181 146.71055481 306.19687134 146.34797668 305.4112854 C144.199418 300.79013021 144.199418 300.79013021 140.28938293 297.53433228 C140.1566095 296.81632446 140.02383606 296.09831665 139.88703918 295.35855103 C139.0516339 291.41085153 136.9785954 288.64681516 134.72688293 285.34683228 C130.28938293 278.78148706 130.28938293 278.78148706 130.28938293 276.53433228 C129.62938293 276.53433228 128.96938293 276.53433228 128.28938293 276.53433228 C127.26813974 274.88059707 126.27376985 273.21026789 125.28938293 271.53433228 C119.37877114 263.99616071 112.99047316 256.99627827 105.97688293 250.47183228 C105.41509338 249.9484729 104.85330383 249.42511353 104.27449036 248.88589478 C97.12240957 242.21213409 97.12240957 242.21213409 88.28938293 238.53433228 C87.95938293 236.88433228 87.62938293 235.23433228 87.28938293 233.53433228 C87.95764603 233.53655289 88.62590912 233.5387735 89.31442261 233.5410614 C96.3400061 233.5633769 103.36557934 233.57834712 110.39118958 233.58926392 C113.00480051 233.59425818 115.61840871 233.60105589 118.23200989 233.60977173 C142.2989305 234.19871515 142.2989305 234.19871515 166.03938293 230.97183228 C172.06450255 229.53433228 172.06450255 229.53433228 175.28938293 229.53433228 C175.61938293 228.87433228 175.94938293 228.21433228 176.28938293 227.53433228 C178.04719543 226.99917603 178.04719543 226.99917603 180.41438293 226.47183228 C196.13746395 221.98917737 210.01260599 210.42043134 218.24250793 196.51089478 C228.38212751 177.90895718 230.52707795 154.85767691 224.68000793 134.56948853 C221.01181776 123.31580958 215.28162194 113.2689334 207.28938293 104.53433228 C206.403797 103.51146118 206.403797 103.51146118 205.50032043 102.46792603 C196.7612064 92.96646375 184.2926461 86.0555023 172.28938293 81.53433228 C171.29938293 81.53433228 170.30938293 81.53433228 169.28938293 81.53433228 C169.28938293 80.87433228 169.28938293 80.21433228 169.28938293 79.53433228 C166.91596827 79.05038221 164.54149942 78.57406967 162.16438293 78.10855103 C160.40985225 77.75812166 158.65856617 77.39011594 156.91438293 76.99136353 C135.80931694 72.49300811 112.74135457 74.37020095 91.25593519 74.3670752 C88.47517802 74.36635703 85.69442557 74.36420863 82.91366959 74.36157799 C73.1723678 74.35237729 63.43107955 74.34823698 53.68977356 74.34902954 C44.67096137 74.34963093 35.65220886 74.33905337 26.63341177 74.32328588 C18.83147925 74.31014136 11.02956611 74.30484843 3.22762263 74.30548495 C-1.40664434 74.30573764 -6.04085795 74.30301418 -10.67511368 74.2923069 C-15.03380395 74.28250664 -19.39239102 74.28262683 -23.75108528 74.28982353 C-25.33310538 74.29085429 -26.91513235 74.28859859 -28.49714088 74.28246307 C-60.81146272 74.16543135 -90.81929091 80.34363482 -114.70280457 103.50698853 C-128.54951861 117.29755557 -136.68232043 134.39916303 -137.71061707 153.97964478 C-137.71061707 168.40463942 -132.97178913 182.02126307 -123.37858582 192.91323853 C-104.07005412 211.6791417 -74.62064335 218.50019682 -49.59049988 225.84341431 C-45.92221627 226.9206087 -42.25771408 228.01002688 -38.59342957 229.10073853 C-36.24207924 229.79546748 -33.89052412 230.48950374 -31.53874207 231.18276978 C-30.45329102 231.50562958 -29.36783997 231.82848938 -28.24949646 232.16113281 C-23.06756094 233.6744464 -18.08356174 234.9689092 -12.71061707 235.53433228 C-12.71061707 236.19433228 -12.71061707 236.85433228 -12.71061707 237.53433228 C-9.08176382 237.68582526 -9.08176382 237.68582526 -5.71061707 236.53433228 C-5.05061707 237.19433228 -4.39061707 237.85433228 -3.71061707 238.53433228 C-1.0275012 240.32307618 0.89719841 241.18129738 3.91047668 242.16323853 C4.83602356 242.47132446 5.76157043 242.7794104 6.71516418 243.09683228 C7.70903137 243.42683228 8.70289856 243.75683228 9.72688293 244.09683228 C20.92509685 247.90928953 31.64601417 252.38258794 42.28938293 257.53433228 C42.9693634 257.85869263 43.64934387 258.18305298 44.34992981 258.51724243 C54.93208173 263.62067284 64.20368065 270.10826927 73.28938293 277.53433228 C73.86962219 278.00854614 74.44986145 278.48276001 75.04768372 278.97134399 C101.50089353 301.01952264 117.45427462 334.72800674 120.84407043 368.75308228 C124.33748987 409.70488332 114.6822266 449.00222698 88.37141418 481.07339478 C78.20035845 493.09546816 78.20035845 493.09546816 75.14875793 494.56558228 C72.74933806 495.81570019 72.41316853 497.12556233 71.28938293 499.53433228 C48.23196962 521.5380466 13.20075911 532.99057632 -17.71061707 536.53433228 C-18.41790955 536.62045776 -19.12520203 536.70658325 -19.85392761 536.7953186 C-54.9131228 540.75033023 -90.71053016 535.43013665 -122.71061707 520.53433228 C-123.73783875 520.05770142 -123.73783875 520.05770142 -124.78581238 519.57144165 C-143.67964702 510.61475706 -161.30097986 497.60664864 -174.71061707 481.53433228 C-175.81314933 480.24127024 -176.91723373 478.94952949 -178.02311707 477.65933228 C-178.49362488 477.1050354 -178.96413269 476.55073853 -179.44889832 475.97964478 C-180.48892501 474.78828292 -181.5923598 473.65258954 -182.71061707 472.53433228 C-183.71061707 470.86766561 -184.71061707 469.20099894 -185.71061707 467.53433228 C-186.37061707 466.87433228 -187.03061707 466.21433228 -187.71061707 465.53433228 C-193.91136529 456.14202247 -198.1904525 446.03141172 -202.38444519 435.62368774 C-202.78856628 434.62095825 -203.19268738 433.61822876 -203.60905457 432.58511353 C-203.96660828 431.68446167 -204.32416199 430.78380981 -204.69255066 429.85586548 C-205.71759949 427.33553341 -205.71759949 427.33553341 -207.71061707 424.53433228 C-208.04061707 424.53433228 -208.37061707 424.53433228 -208.71061707 424.53433228 C-208.68096863 423.39737915 -208.65132019 422.26042603 -208.62077332 421.08901978 C-208.62178534 416.49646452 -209.29890559 412.16212799 -210.14811707 407.65933228 C-210.2828241 406.90136353 -210.41753113 406.14339478 -210.55632019 405.36245728 C-211.25437182 401.33097462 -211.25437182 401.33097462 -212.71061707 397.53433228 C-212.68999207 396.70933228 -212.66936707 395.88433228 -212.64811707 395.03433228 C-212.42767862 392.35779488 -212.42767862 392.35779488 -214.71061707 390.53433228 C-214.38061707 390.20433228 -214.05061707 389.87433228 -213.71061707 389.53433228 C-213.55081269 387.0882423 -213.4513226 384.6670217 -213.39421082 382.21792603 C-213.37342972 381.48687149 -213.35264862 380.75581696 -213.33123779 380.00260925 C-213.26566683 377.65911571 -213.20682275 375.31550689 -213.14811707 372.97183228 C-213.10493899 371.38653372 -213.06132494 369.80124698 -213.01725769 368.2159729 C-212.90997787 364.3222119 -212.80873217 360.42833455 -212.71061707 356.53433228 C-189.04096253 355.91405139 -165.3902726 355.33529211 -141.71061707 355.53433228 C-140.51433403 357.92689834 -140.61015443 359.3685114 -140.64811707 362.03433228 C-140.65971863 363.36464478 -140.65971863 363.36464478 -140.67155457 364.72183228 C-140.69759623 366.59683228 -140.7236379 368.47183228 -140.74967957 370.34683228 C-140.76128113 371.67714478 -140.76128113 371.67714478 -140.77311707 373.03433228 C-140.78471863 373.84901978 -140.79632019 374.66370728 -140.80827332 375.50308228 C-140.84429583 377.6034297 -140.84429583 377.6034297 -139.71061707 379.53433228 C-139.77249207 380.70995728 -139.83436707 381.88558228 -139.89811707 383.09683228 C-140.09188952 403.11998593 -129.79088158 423.77120587 -116.02311707 437.84683228 C-95.16117256 458.25307096 -65.56611468 466.13451704 -37.01017761 465.88760376 C-28.72343488 465.66029069 -20.76059037 464.48062834 -12.71061707 462.53433228 C-12.04078796 462.3733606 -11.37095886 462.21238892 -10.68083191 462.04653931 C9.09342407 457.07311566 27.09620349 445.91397336 38.28938293 428.53433228 C45.90240716 415.63090138 49.46386753 401.69998756 49.47688293 386.78433228 C49.48912903 386.03023071 49.50137512 385.27612915 49.51399231 384.49917603 C49.52426739 380.64259546 49.47802704 378.81729844 47.28938293 375.53433228 C47.59875793 374.08026978 47.59875793 374.08026978 47.91438293 372.59683228 C48.8413944 367.74304189 46.86808319 363.61644789 45.19953918 359.10855103 C44.28938293 356.53433228 44.28938293 356.53433228 44.28938293 354.53433228 C43.62938293 354.20433228 42.96938293 353.87433228 42.28938293 353.53433228 C41.35969543 351.82730103 41.35969543 351.82730103 40.41438293 349.72183228 C38.76758804 346.30715464 37.11130253 344.10725896 34.28938293 341.53433228 C33.91684387 341.04706665 33.54430481 340.55980103 33.16047668 340.05776978 C26.94997553 331.93777124 17.38839435 325.87282746 7.89875793 322.28823853 C6.28938293 321.53433228 6.28938293 321.53433228 5.28938293 319.53433228 C3.46241829 318.72022551 3.46241829 318.72022551 1.25398254 318.08340454 C0.43727081 317.82624664 -0.37944092 317.56908875 -1.22090149 317.30413818 C-2.04250763 317.05010223 -2.86411377 316.79606628 -3.71061707 316.53433228 C-5.09636583 316.07914564 -6.48110112 315.62085888 -7.8646698 315.15908813 C-25.91246753 309.20653003 -43.97670757 303.33189124 -62.21061707 297.97183228 C-62.88543121 297.77250092 -63.56024536 297.57316956 -64.25550842 297.36779785 C-71.63231103 295.19467299 -79.03773676 293.14790272 -86.49186707 291.25698853 C-87.17011536 291.08324203 -87.84836365 290.90949554 -88.54716492 290.73048401 C-91.35566303 290.03084294 -93.80278388 289.53433228 -96.71061707 289.53433228 C-97.04061707 288.87433228 -97.37061707 288.21433228 -97.71061707 287.53433228 C-100.73996197 286.87660799 -100.73996197 286.87660799 -103.71061707 286.53433228 C-103.71061707 285.87433228 -103.71061707 285.21433228 -103.71061707 284.53433228 C-104.55624207 284.43120728 -105.40186707 284.32808228 -106.27311707 284.22183228 C-110.12504407 283.45144687 -113.15136738 282.17158713 -116.71061707 280.53433228 C-117.04061707 281.19433228 -117.37061707 281.85433228 -117.71061707 282.53433228 C-118.12094177 282.07945435 -118.53126648 281.62457642 -118.95402527 281.15591431 C-120.84897283 279.40661039 -122.44813876 278.58853126 -124.81608582 277.58901978 C-126.03267883 277.06368652 -126.03267883 277.06368652 -127.27384949 276.52774048 C-128.57286194 275.97412842 -128.57286194 275.97412842 -129.89811707 275.40933228 C-148.60107921 267.21695802 -167.14720842 257.17628926 -180.71061707 241.53433228 C-180.71061707 240.87433228 -180.71061707 240.21433228 -180.71061707 239.53433228 C-181.70061707 239.86433228 -182.69061707 240.19433228 -183.71061707 240.53433228 C-183.77249207 239.97745728 -183.83436707 239.42058228 -183.89811707 238.84683228 C-185.04435578 235.58446054 -187.20451904 233.84765353 -189.71061707 231.53433228 C-190.37061707 231.86433228 -191.03061707 232.19433228 -191.71061707 232.53433228 C-191.62940613 231.8356604 -191.54819519 231.13698853 -191.46452332 230.41714478 C-191.79578743 226.53662228 -193.40104049 224.56076832 -195.64811707 221.40933228 C-199.62941573 215.77793628 -199.62941573 215.77793628 -200.71061707 212.53433228 C-201.74221865 210.21012147 -202.80541372 207.90183704 -203.87077332 205.59292603 C-204.71061707 203.53433228 -204.71061707 203.53433228 -204.71061707 201.53433228 C-205.70061707 201.20433228 -206.69061707 200.87433228 -207.71061707 200.53433228 C-207.83178894 199.25171509 -207.95296082 197.9690979 -208.07780457 196.64761353 C-208.73425579 190.72447502 -210.06970793 184.99596701 -211.42546082 179.2003479 C-211.6046405 178.39661743 -211.78382019 177.59288696 -211.96842957 176.76480103 C-212.13487976 176.04703491 -212.30132996 175.3292688 -212.4728241 174.5897522 C-212.7363151 172.31220518 -212.39464913 170.70715799 -211.71061707 168.53433228 C-212.37061707 168.20433228 -213.03061707 167.87433228 -213.71061707 167.53433228 C-212.26271467 121.05167263 -199.13438413 82.81916804 -165.35514832 49.85464478 C-157.26274451 42.75436729 -148.60335894 36.12949252 -139.35929871 30.60366821 C-137.54670788 29.50940113 -137.54670788 29.50940113 -135.71061707 27.53433228 C-100.773832 8.1047364 -64.59905941 1.71380296 -25.07609558 0.98208618 C-22.34350749 0.93016391 -19.61106221 0.87304159 -16.87858582 0.81558228 C-16.04723618 0.80200684 -15.21588654 0.7884314 -14.35934448 0.77444458 C-10.94180131 0.70165393 -7.76403013 0.54365631 -4.38761902 -0.04574585 C-1.71061707 -0.46566772 -1.71061707 -0.46566772 0 0 Z " fill="#020303" transform="translate(472.7106170654297,228.46566772460938)"/>
<path d="M0 0 C3.22154489 0.75120601 6.29120796 0.66159253 9.59802246 0.66358948 C10.32691177 0.6653418 11.05580109 0.66709412 11.80677795 0.66889954 C14.2103617 0.67329253 16.61387159 0.67038966 19.01745605 0.66700745 C20.68846653 0.66768107 22.35947692 0.66865159 24.03048706 0.66990662 C27.52908259 0.67138 31.02765256 0.66924 34.52624512 0.66456604 C39.01669147 0.65886013 43.50707817 0.66215547 47.99752235 0.6681385 C51.44610039 0.67174626 54.89466419 0.67060469 58.34324265 0.66801071 C59.99949526 0.6673425 61.65574916 0.6681662 63.31200027 0.67049026 C65.62221976 0.67302125 67.93234153 0.66917028 70.24255371 0.66358948 C71.55841461 0.66279388 72.87427551 0.66199829 74.23001099 0.66117859 C77.20656934 0.74708829 77.20656934 0.74708829 79.29089355 -0.46580505 C79.29089355 0.19419495 79.29089355 0.85419495 79.29089355 1.53419495 C80.53612793 1.45040588 81.7813623 1.36661682 83.06433105 1.2802887 C103.81383337 0.07683297 124.533757 0.89100374 145.29089355 1.53419495 C145.29089355 1.86419495 145.29089355 2.19419495 145.29089355 2.53419495 C81.27089355 2.53419495 17.25089355 2.53419495 -48.70910645 2.53419495 C-48.70910645 2.20419495 -48.70910645 1.87419495 -48.70910645 1.53419495 C-47.49851562 1.50913879 -46.2879248 1.48408264 -45.04064941 1.45826721 C-40.53420058 1.36384611 -36.02789344 1.26371107 -31.52160645 1.16188049 C-29.5740491 1.11866259 -27.62645708 1.07697864 -25.67883301 1.03688049 C-22.87371383 0.97885837 -20.06876712 0.91525711 -17.26379395 0.8506012 C-16.39793671 0.8338887 -15.53207947 0.81717621 -14.63998413 0.79995728 C-11.12493807 0.7145007 -7.83385837 0.55589687 -4.36193848 -0.04808044 C-1.70910645 -0.46580505 -1.70910645 -0.46580505 0 0 Z " fill="#454545" transform="translate(472.7091064453125,228.46580505371094)"/>
<path d="M0 0 C0.66 0.33 1.32 0.66 2 1 C-5.92 8.92 -13.84 16.84 -22 25 C-22 20.69930341 -19.44178782 18.83109357 -16.625 15.875 C-16.08713867 15.30112549 -15.54927734 14.72725098 -14.99511719 14.13598633 C-10.24767775 9.13077686 -5.24129482 4.4875688 0 0 Z " fill="#2B2B2A" transform="translate(315,272)"/>
<path d="M0 0 C0.99 0.99 1.98 1.98 3 3 C-13.5 3 -30 3 -47 3 C-47 2.67 -47 2.34 -47 2 C-45.78940918 1.97494385 -44.57881836 1.9498877 -43.33154297 1.92407227 C-38.82509413 1.82965116 -34.318787 1.72951612 -29.8125 1.62768555 C-27.86494266 1.58446764 -25.91735063 1.54278369 -23.96972656 1.50268555 C-21.16460738 1.44466342 -18.35966067 1.38106216 -15.5546875 1.31640625 C-14.68883026 1.29969376 -13.82297302 1.28298126 -12.93087769 1.26576233 C-9.34823007 1.17866225 -6.11299039 1.02343786 -2.59033203 0.29272461 C-1.73552246 0.19612549 -0.88071289 0.09952637 0 0 Z " fill="#4B4C4B" transform="translate(471,228)"/>
<path d="M0 0 C0.33 0 0.66 0 1 0 C1.79706768 3.49992696 2.11863027 6.7142231 2.09765625 10.30078125 C2.09443359 11.27724609 2.09121094 12.25371094 2.08789062 13.25976562 C2.07951172 14.26716797 2.07113281 15.27457031 2.0625 16.3125 C2.05798828 17.33923828 2.05347656 18.36597656 2.04882812 19.42382812 C2.03708184 21.94927882 2.02065565 24.47460905 2 27 C1.67 27 1.34 27 1 27 C0.95101562 25.80761719 0.90203125 24.61523438 0.8515625 23.38671875 C0.77652396 21.82028932 0.7009766 20.25388421 0.625 18.6875 C0.57859375 17.50897461 0.57859375 17.50897461 0.53125 16.30664062 C0.47324219 15.1706543 0.47324219 15.1706543 0.4140625 14.01171875 C0.3826416 13.31522217 0.3512207 12.61872559 0.31884766 11.90112305 C0.07881747 9.67467261 0.07881747 9.67467261 -2 7 C-1.6875 5 -1.6875 5 -1 3 C-0.67 2.01 -0.34 1.02 0 0 Z " fill="#50504E" transform="translate(522,597)"/>
<path d="M0 0 C0.33 0.99 0.66 1.98 1 3 C-2.3 6.3 -5.6 9.6 -9 13 C-9 8.86218946 -7.28490393 7.79080004 -4.5 4.8125 C-3.6646875 3.91144531 -2.829375 3.01039063 -1.96875 2.08203125 C-0.99421875 1.05142578 -0.99421875 1.05142578 0 0 Z " fill="#313230" transform="translate(302,284)"/>
<path d="M0 0 C0.33 0 0.66 0 1 0 C1 1.98 1 3.96 1 6 C0.34 5.67 -0.32 5.34 -1 5 C-0.67 3.35 -0.34 1.7 0 0 Z " fill="#3D3C3B" transform="translate(521,616)"/>
<path d="M0 0 C0.66 0.33 1.32 0.66 2 1 C1.01 1 0.02 1 -1 1 C-0.67 0.67 -0.34 0.34 0 0 Z " fill="#403F3E" transform="translate(401,765)"/>
<path d="M0 0 C0.66 0.66 1.32 1.32 2 2 C1.01 2.495 1.01 2.495 0 3 C0 2.01 0 1.02 0 0 Z " fill="#3F3D3C" transform="translate(288,699)"/>
<path d="M0 0 C4 1 4 1 4 1 Z " fill="#3C3D3A" transform="translate(400,689)"/>
<path d="M0 0 C4 1 4 1 4 1 Z " fill="#383939" transform="translate(396,688)"/>
<path d="M0 0 C1 4 1 4 1 4 Z " fill="#3F3D3C" transform="translate(521,610)"/>
<path d="M0 0 C3 1 3 1 3 1 Z " fill="#3A3B39" transform="translate(428,767)"/>
<path d="M0 0 C3 1 3 1 3 1 Z " fill="#3D3C3B" transform="translate(424,767)"/>
<path d="M0 0 C3 1 3 1 3 1 Z " fill="#3F3F3D" transform="translate(361,755)"/>
<path d="M0 0 C0.33 0.66 0.66 1.32 1 2 C0.34 1.67 -0.32 1.34 -1 1 C-0.67 0.67 -0.34 0.34 0 0 Z " fill="#3E3F3D" transform="translate(289,702)"/>
<path d="M0 0 C0.99 0.495 0.99 0.495 2 1 C1.01 1.495 1.01 1.495 0 2 C0 1.34 0 0.68 0 0 Z " fill="#3B3A39" transform="translate(480,680)"/>
<path d="" fill="#3E3E3C" transform="translate(0,0)"/>
<path d="M0 0 C0.66 0 1.32 0 2 0 C1.67 0.66 1.34 1.32 1 2 C0.67 1.34 0.34 0.68 0 0 Z " fill="#3D3C3B" transform="translate(656,616)"/>
<path d="" fill="#3B3B38" transform="translate(0,0)"/>
<path d="M0 0 C0.66 0.66 1.32 1.32 2 2 C1.34 2 0.68 2 0 2 C0 1.34 0 0.68 0 0 Z " fill="#3F3F3D" transform="translate(337,502)"/>
<path d="M0 0 C0.99 0.495 0.99 0.495 2 1 C1.01 1.495 1.01 1.495 0 2 C0 1.34 0 0.68 0 0 Z " fill="#403E3E" transform="translate(328,498)"/>
<path d="M0 0 C0.66 0 1.32 0 2 0 C1.67 0.66 1.34 1.32 1 2 C0.67 1.34 0.34 0.68 0 0 Z " fill="#3B3C3A" transform="translate(526,488)"/>
<path d="M0 0 C0.66 0 1.32 0 2 0 C1.67 0.66 1.34 1.32 1 2 C0.67 1.34 0.34 0.68 0 0 Z " fill="#3D3C3C" transform="translate(523,488)"/>
<path d="M0 0 C0.33 0.66 0.66 1.32 1 2 C0.34 1.67 -0.32 1.34 -1 1 C-0.67 0.67 -0.34 0.34 0 0 Z " fill="#413E3E" transform="translate(297,476)"/>
<path d="M0 0 C0.66 0.66 1.32 1.32 2 2 C1.34 2 0.68 2 0 2 C0 1.34 0 0.68 0 0 Z " fill="#3D3D3B" transform="translate(487,472)"/>
<path d="M0 0 C3 1 3 1 3 1 Z " fill="#3C3C3A" transform="translate(469,467)"/>
<path d="M0 0 C3 1 3 1 3 1 Z " fill="#3E3F3E" transform="translate(639,456)"/>
<path d="M0 0 C0.33 0.66 0.66 1.32 1 2 C0.34 1.67 -0.32 1.34 -1 1 C-0.67 0.67 -0.34 0.34 0 0 Z " fill="#3B3D3B" transform="translate(411,448)"/>
<path d="" fill="#3E3D3C" transform="translate(0,0)"/>
<path d="M0 0 C0.66 0.66 1.32 1.32 2 2 C1.34 2 0.68 2 0 2 C0 1.34 0 0.68 0 0 Z " fill="#3C3A3B" transform="translate(689,347)"/>
<path d="M0 0 C3 1 3 1 3 1 Z " fill="#373836" transform="translate(564,303)"/>
<path d="M0 0 C3 1 3 1 3 1 Z " fill="#373636" transform="translate(436,303)"/>
<path d="M0 0 C2 1 2 1 2 1 Z " fill="#3E3D3D" transform="translate(436,767)"/>
<path d="M0 0 C2 1 2 1 2 1 Z " fill="#403F3D" transform="translate(420,767)"/>
<path d="M0 0 C2 1 2 1 2 1 Z " fill="#3E3D3D" transform="translate(406,766)"/>
<path d="M0 0 C2 1 2 1 2 1 Z " fill="#484A48" transform="translate(800,763)"/>
<path d="" fill="#494948" transform="translate(0,0)"/>
<path d="" fill="#403E3B" transform="translate(0,0)"/>
<path d="M0 0 C2 1 2 1 2 1 Z " fill="#3F3F3B" transform="translate(333,743)"/>
<path d="" fill="#3C3B38" transform="translate(0,0)"/>
<path d="" fill="#3E3D3B" transform="translate(0,0)"/>
<path d="M0 0 C2 1 2 1 2 1 Z " fill="#403F3D" transform="translate(281,692)"/>
<path d="M0 0 C2 1 2 1 2 1 Z " fill="#3F403E" transform="translate(465,688)"/>
<path d="" fill="#3E3C3B" transform="translate(0,0)"/>
<path d="" fill="#3E3D3B" transform="translate(0,0)"/>
<path d="" fill="#3D3D3A" transform="translate(0,0)"/>
<path d="" fill="#393736" transform="translate(0,0)"/>
<path d="" fill="#41403F" transform="translate(0,0)"/>
<path d="M0 0 C2 1 2 1 2 1 Z " fill="#3D3C3C" transform="translate(674,654)"/>
<path d="" fill="#3E3C3B" transform="translate(0,0)"/>
<path d="" fill="#3E3C3C" transform="translate(0,0)"/>
<path d="" fill="#3C3C3B" transform="translate(0,0)"/>
<path d="" fill="#414240" transform="translate(0,0)"/>
<path d="" fill="#3E3E3E" transform="translate(0,0)"/>
<path d="" fill="#3D3D3B" transform="translate(0,0)"/>
<path d="" fill="#3B3B39" transform="translate(0,0)"/>
<path d="" fill="#3D3C3A" transform="translate(0,0)"/>
<path d="M0 0 C2 1 2 1 2 1 Z " fill="#3B3B38" transform="translate(650,603)"/>
<path d="" fill="#3B3B3A" transform="translate(0,0)"/>
<path d="" fill="#3F3E3D" transform="translate(0,0)"/>
<path d="" fill="#3C3B39" transform="translate(0,0)"/>
<path d="M0 0 C2 1 2 1 2 1 Z " fill="#3D3E3C" transform="translate(496,561)"/>
<path d="" fill="#3F3F3E" transform="translate(0,0)"/>
<path d="M0 0 C2 1 2 1 2 1 Z " fill="#3F3F3C" transform="translate(449,539)"/>
<path d="M0 0 C2 1 2 1 2 1 Z " fill="#3B3A3A" transform="translate(617,535)"/>
<path d="M0 0 C2 1 2 1 2 1 Z " fill="#403F3E" transform="translate(432,534)"/>
<path d="M0 0 C2 1 2 1 2 1 Z " fill="#40403F" transform="translate(351,511)"/>
<path d="" fill="#3B3B3A" transform="translate(0,0)"/>
<path d="M0 0 C2 1 2 1 2 1 Z " fill="#41403E" transform="translate(330,499)"/>
<path d="M0 0 C2 1 2 1 2 1 Z " fill="#3A3939" transform="translate(504,480)"/>
<path d="" fill="#41413F" transform="translate(0,0)"/>
<path d="M0 0 C2 1 2 1 2 1 Z " fill="#42423F" transform="translate(633,456)"/>
<path d="M0 0 C2 1 2 1 2 1 Z " fill="#373636" transform="translate(366,432)"/>
<path d="" fill="#40403E" transform="translate(0,0)"/>
<path d="" fill="#393A3B" transform="translate(0,0)"/>
<path d="M0 0 C2 1 2 1 2 1 Z " fill="#3F3D3C" transform="translate(697,400)"/>
<path d="" fill="#3E3D3C" transform="translate(0,0)"/>
<path d="" fill="#3F403D" transform="translate(0,0)"/>
<path d="" fill="#3F3E3E" transform="translate(0,0)"/>
<path d="M0 0 C2 1 2 1 2 1 Z " fill="#3C3C3B" transform="translate(645,311)"/>
<path d="M0 0 C2 1 2 1 2 1 Z " fill="#393938" transform="translate(580,303)"/>
<path d="M0 0 C2 1 2 1 2 1 Z " fill="#3A393A" transform="translate(484,303)"/>
<path d="M0 0 C2 1 2 1 2 1 Z " fill="#3A3939" transform="translate(452,303)"/>
<path d="M0 0 C2 1 2 1 2 1 Z " fill="#3B3A39" transform="translate(445,303)"/>
<path d="" fill="#3F3E3D" transform="translate(0,0)"/>
<path d="M0 0 C2 1 2 1 2 1 Z " fill="#3D3C3C" transform="translate(312,272)"/>
<path d="M0 0 C2 1 2 1 2 1 Z " fill="#3A3A3A" transform="translate(320,266)"/>
<path d="M0 0 C2 1 2 1 2 1 Z " fill="#3C3F3D" transform="translate(674,241)"/>
<path d="M0 0 C2 1 2 1 2 1 Z " fill="#3E3F3C" transform="translate(367,240)"/>
<path d="M0 0 C2 1 2 1 2 1 Z " fill="#3C3B39" transform="translate(647,233)"/>
<path d="M0 0 C2 1 2 1 2 1 Z " fill="#403F3D" transform="translate(391,233)"/>
<path d="M0 0 C2 1 2 1 2 1 Z " fill="#40403E" transform="translate(484,228)"/>
<path d="" fill="#4D4E4D" transform="translate(0,0)"/>
<path d="" fill="#3F403D" transform="translate(0,0)"/>
<path d="" fill="#3F403D" transform="translate(0,0)"/>
<path d="" fill="#3D3C3B" transform="translate(0,0)"/>
<path d="" fill="#3D3D3A" transform="translate(0,0)"/>
<path d="" fill="#414040" transform="translate(0,0)"/>
<path d="" fill="#3C3C3A" transform="translate(0,0)"/>
<path d="" fill="#3F3F3B" transform="translate(0,0)"/>
<path d="" fill="#403F3E" transform="translate(0,0)"/>
<path d="" fill="#3A3939" transform="translate(0,0)"/>
<path d="" fill="#3F3D3C" transform="translate(0,0)"/>
<path d="" fill="#40413C" transform="translate(0,0)"/>
<path d="" fill="#3C3E3D" transform="translate(0,0)"/>
<path d="" fill="#3D3B3A" transform="translate(0,0)"/>
<path d="" fill="#3F3C3D" transform="translate(0,0)"/>
<path d="" fill="#3B3B38" transform="translate(0,0)"/>
<path d="" fill="#3F3E3F" transform="translate(0,0)"/>
<path d="" fill="#3C3F3B" transform="translate(0,0)"/>
<path d="" fill="#3A3D39" transform="translate(0,0)"/>
<path d="" fill="#3C3937" transform="translate(0,0)"/>
<path d="" fill="#3E3E3C" transform="translate(0,0)"/>
<path d="" fill="#3A3B3A" transform="translate(0,0)"/>
<path d="" fill="#3D3E3C" transform="translate(0,0)"/>
<path d="" fill="#3D3C3A" transform="translate(0,0)"/>
<path d="" fill="#3B3937" transform="translate(0,0)"/>
<path d="" fill="#3E3C3E" transform="translate(0,0)"/>
<path d="" fill="#3A3D3A" transform="translate(0,0)"/>
<path d="" fill="#3E3E3B" transform="translate(0,0)"/>
<path d="" fill="#3E413E" transform="translate(0,0)"/>
<path d="" fill="#3F3F3D" transform="translate(0,0)"/>
<path d="" fill="#3F3C3B" transform="translate(0,0)"/>
<path d="" fill="#3A3A39" transform="translate(0,0)"/>
<path d="" fill="#3B3C3B" transform="translate(0,0)"/>
<path d="" fill="#3F3D3C" transform="translate(0,0)"/>
<path d="" fill="#3E3D3B" transform="translate(0,0)"/>
<path d="" fill="#3D3E3D" transform="translate(0,0)"/>
<path d="" fill="#3F403D" transform="translate(0,0)"/>
<path d="" fill="#3E403D" transform="translate(0,0)"/>
<path d="" fill="#3E3D3D" transform="translate(0,0)"/>
<path d="" fill="#3C3D3C" transform="translate(0,0)"/>
<path d="" fill="#3D3D3A" transform="translate(0,0)"/>
<path d="" fill="#413E3D" transform="translate(0,0)"/>
<path d="" fill="#3E3F3C" transform="translate(0,0)"/>
<path d="" fill="#3A3837" transform="translate(0,0)"/>
<path d="" fill="#3C3D3B" transform="translate(0,0)"/>
<path d="" fill="#3E403D" transform="translate(0,0)"/>
<path d="" fill="#3E3F3C" transform="translate(0,0)"/>
<path d="" fill="#3D3F3B" transform="translate(0,0)"/>
<path d="" fill="#3F3F3C" transform="translate(0,0)"/>
<path d="" fill="#3D3F3C" transform="translate(0,0)"/>
<path d="" fill="#3A3A38" transform="translate(0,0)"/>
<path d="" fill="#3E3E3C" transform="translate(0,0)"/>
<path d="" fill="#3C3D3B" transform="translate(0,0)"/>
<path d="" fill="#3E3E3C" transform="translate(0,0)"/>
<path d="" fill="#3D3D3B" transform="translate(0,0)"/>
<path d="" fill="#3E403E" transform="translate(0,0)"/>
<path d="" fill="#3C3B3B" transform="translate(0,0)"/>
<path d="" fill="#3F3E3D" transform="translate(0,0)"/>
<path d="" fill="#3F3C3D" transform="translate(0,0)"/>
<path d="" fill="#3B3E3C" transform="translate(0,0)"/>
<path d="" fill="#3B3B39" transform="translate(0,0)"/>
<path d="" fill="#393737" transform="translate(0,0)"/>
<path d="" fill="#40403E" transform="translate(0,0)"/>
<path d="" fill="#40403F" transform="translate(0,0)"/>
<path d="" fill="#3C3C3C" transform="translate(0,0)"/>
<path d="" fill="#3A3B3B" transform="translate(0,0)"/>
<path d="" fill="#464546" transform="translate(0,0)"/>
<path d="" fill="#3D3D3C" transform="translate(0,0)"/>
<path d="" fill="#3E3C3A" transform="translate(0,0)"/>
<path d="" fill="#3D3A3A" transform="translate(0,0)"/>
<path d="" fill="#3B3A3A" transform="translate(0,0)"/>
<path d="" fill="#3F413B" transform="translate(0,0)"/>
<path d="" fill="#3E3D3B" transform="translate(0,0)"/>
<path d="" fill="#39393A" transform="translate(0,0)"/>
<path d="" fill="#3B3A39" transform="translate(0,0)"/>
<path d="" fill="#3F3F3E" transform="translate(0,0)"/>
<path d="" fill="#3F403B" transform="translate(0,0)"/>
<path d="" fill="#3E3E3F" transform="translate(0,0)"/>
<path d="" fill="#3C3B3C" transform="translate(0,0)"/>
<path d="" fill="#3E3D3C" transform="translate(0,0)"/>
<path d="" fill="#3F413D" transform="translate(0,0)"/>
<path d="" fill="#3D3D3C" transform="translate(0,0)"/>
<path d="" fill="#3E3C3B" transform="translate(0,0)"/>
<path d="" fill="#3D3C3B" transform="translate(0,0)"/>
<path d="" fill="#3F3D3D" transform="translate(0,0)"/>
<path d="" fill="#3D3F3D" transform="translate(0,0)"/>
<path d="" fill="#3F413F" transform="translate(0,0)"/>
<path d="" fill="#3D3D3E" transform="translate(0,0)"/>
<path d="" fill="#3C3C3B" transform="translate(0,0)"/>
<path d="" fill="#3A3A38" transform="translate(0,0)"/>
<path d="" fill="#3C3C37" transform="translate(0,0)"/>
<path d="" fill="#3A3839" transform="translate(0,0)"/>
<path d="" fill="#40413F" transform="translate(0,0)"/>
<path d="" fill="#3E3C39" transform="translate(0,0)"/>
<path d="" fill="#3B3A39" transform="translate(0,0)"/>
<path d="" fill="#444341" transform="translate(0,0)"/>
<path d="" fill="#41413D" transform="translate(0,0)"/>
<path d="" fill="#403E3F" transform="translate(0,0)"/>
<path d="" fill="#403C3B" transform="translate(0,0)"/>
<path d="" fill="#3D3D3A" transform="translate(0,0)"/>
<path d="" fill="#3C3B3B" transform="translate(0,0)"/>
<path d="" fill="#444543" transform="translate(0,0)"/>
<path d="" fill="#464745" transform="translate(0,0)"/>
<path d="" fill="#464644" transform="translate(0,0)"/>
<path d="" fill="#474847" transform="translate(0,0)"/>
<path d="" fill="#494749" transform="translate(0,0)"/>
<path d="" fill="#3C3B3A" transform="translate(0,0)"/>
<path d="" fill="#414140" transform="translate(0,0)"/>
<path d="" fill="#3B3A37" transform="translate(0,0)"/>
<path d="" fill="#3D3C39" transform="translate(0,0)"/>
<path d="" fill="#3B3E3C" transform="translate(0,0)"/>
<path d="" fill="#3E403C" transform="translate(0,0)"/>
<path d="" fill="#3E3F3D" transform="translate(0,0)"/>
<path d="" fill="#3A3B3A" transform="translate(0,0)"/>
<path d="" fill="#3E3D3B" transform="translate(0,0)"/>
<path d="" fill="#3C3B3A" transform="translate(0,0)"/>
<path d="" fill="#3C3A3A" transform="translate(0,0)"/>
<path d="" fill="#3E3D3D" transform="translate(0,0)"/>
<path d="" fill="#3F403E" transform="translate(0,0)"/>
<path d="" fill="#3B3C3B" transform="translate(0,0)"/>
<path d="" fill="#3E3E3D" transform="translate(0,0)"/>
<path d="" fill="#353734" transform="translate(0,0)"/>
<path d="" fill="#3C3B3B" transform="translate(0,0)"/>
<path d="" fill="#403E3D" transform="translate(0,0)"/>
<path d="" fill="#3F3D3B" transform="translate(0,0)"/>
<path d="" fill="#413F3F" transform="translate(0,0)"/>
<path d="" fill="#3A3738" transform="translate(0,0)"/>
<path d="" fill="#403E3D" transform="translate(0,0)"/>
<path d="" fill="#3B393A" transform="translate(0,0)"/>
<path d="" fill="#383A39" transform="translate(0,0)"/>
<path d="" fill="#403F3E" transform="translate(0,0)"/>
<path d="" fill="#3B3B3A" transform="translate(0,0)"/>
<path d="" fill="#3B3C39" transform="translate(0,0)"/>
<path d="" fill="#3A3937" transform="translate(0,0)"/>
<path d="" fill="#3C3A3B" transform="translate(0,0)"/>
<path d="" fill="#373735" transform="translate(0,0)"/>
<path d="" fill="#414140" transform="translate(0,0)"/>
<path d="" fill="#3B3A38" transform="translate(0,0)"/>
<path d="" fill="#393A38" transform="translate(0,0)"/>
<path d="" fill="#3A3A38" transform="translate(0,0)"/>
<path d="" fill="#3A3937" transform="translate(0,0)"/>
<path d="" fill="#3F3E3E" transform="translate(0,0)"/>
<path d="" fill="#41413E" transform="translate(0,0)"/>
<path d="" fill="#3B3B3B" transform="translate(0,0)"/>
<path d="" fill="#403F3E" transform="translate(0,0)"/>
<path d="" fill="#403F3D" transform="translate(0,0)"/>
<path d="" fill="#40403E" transform="translate(0,0)"/>
<path d="" fill="#3E3C3D" transform="translate(0,0)"/>
<path d="" fill="#404141" transform="translate(0,0)"/>
<path d="" fill="#3B3B3A" transform="translate(0,0)"/>
<path d="" fill="#40403F" transform="translate(0,0)"/>
<path d="" fill="#434240" transform="translate(0,0)"/>
<path d="" fill="#393938" transform="translate(0,0)"/>
<path d="" fill="#3A3738" transform="translate(0,0)"/>
<path d="" fill="#40423E" transform="translate(0,0)"/>
<path d="" fill="#3B3C39" transform="translate(0,0)"/>
<path d="" fill="#3A3939" transform="translate(0,0)"/>
<path d="" fill="#383938" transform="translate(0,0)"/>
<path d="" fill="#42403C" transform="translate(0,0)"/>
<path d="" fill="#3A3C3A" transform="translate(0,0)"/>
<path d="" fill="#3F3E3B" transform="translate(0,0)"/>
<path d="" fill="#3B3B3A" transform="translate(0,0)"/>
<path d="" fill="#40413F" transform="translate(0,0)"/>
<path d="" fill="#413E3C" transform="translate(0,0)"/>
<path d="" fill="#413C3C" transform="translate(0,0)"/>
<path d="" fill="#42423F" transform="translate(0,0)"/>
<path d="" fill="#3F3F3D" transform="translate(0,0)"/>
<path d="" fill="#383936" transform="translate(0,0)"/>
<path d="" fill="#3E403D" transform="translate(0,0)"/>
<path d="" fill="#3B3D3B" transform="translate(0,0)"/>
<path d="" fill="#3E3B3B" transform="translate(0,0)"/>
<path d="" fill="#3D3F3C" transform="translate(0,0)"/>
<path d="" fill="#3E3D3E" transform="translate(0,0)"/>
<path d="" fill="#413F3E" transform="translate(0,0)"/>
<path d="" fill="#3F4140" transform="translate(0,0)"/>
<path d="" fill="#393938" transform="translate(0,0)"/>
<path d="" fill="#3F403F" transform="translate(0,0)"/>
<path d="" fill="#3F3F3D" transform="translate(0,0)"/>
<path d="" fill="#3A3B38" transform="translate(0,0)"/>
<path d="" fill="#3F3E3D" transform="translate(0,0)"/>
<path d="" fill="#404341" transform="translate(0,0)"/>
<path d="" fill="#40403C" transform="translate(0,0)"/>
<path d="" fill="#3F3F3C" transform="translate(0,0)"/>
<path d="" fill="#3E3F3C" transform="translate(0,0)"/>
<path d="" fill="#3F4041" transform="translate(0,0)"/>
<path d="" fill="#3E3C3B" transform="translate(0,0)"/>
<path d="" fill="#3C3A37" transform="translate(0,0)"/>
<path d="" fill="#3D3E39" transform="translate(0,0)"/>
<path d="" fill="#414141" transform="translate(0,0)"/>
<path d="" fill="#41403E" transform="translate(0,0)"/>
<path d="" fill="#424141" transform="translate(0,0)"/>
<path d="" fill="#3F3D3D" transform="translate(0,0)"/>
<path d="" fill="#403F3D" transform="translate(0,0)"/>
<path d="" fill="#3F3E3C" transform="translate(0,0)"/>
<path d="" fill="#3F413E" transform="translate(0,0)"/>
<path d="" fill="#464444" transform="translate(0,0)"/>
<path d="" fill="#3E3D3D" transform="translate(0,0)"/>
<path d="" fill="#3D3E3B" transform="translate(0,0)"/>
<path d="" fill="#403F3D" transform="translate(0,0)"/>
<path d="" fill="#40403E" transform="translate(0,0)"/>
<path d="" fill="#3C3C3B" transform="translate(0,0)"/>
<path d="" fill="#40403E" transform="translate(0,0)"/>
<path d="" fill="#3F3D3C" transform="translate(0,0)"/>
<path d="" fill="#434340" transform="translate(0,0)"/>
<path d="" fill="#41403F" transform="translate(0,0)"/>
<path d="" fill="#403F40" transform="translate(0,0)"/>
<path d="" fill="#3F3D3E" transform="translate(0,0)"/>
<path d="" fill="#424040" transform="translate(0,0)"/>
<path d="" fill="#3F3E3C" transform="translate(0,0)"/>
<path d="" fill="#3F413D" transform="translate(0,0)"/>
<path d="" fill="#3D3C3B" transform="translate(0,0)"/>
<path d="" fill="#373637" transform="translate(0,0)"/>
<path d="" fill="#3F3F3C" transform="translate(0,0)"/>
<path d="" fill="#3F3F3C" transform="translate(0,0)"/>
<path d="" fill="#3C3B39" transform="translate(0,0)"/>
<path d="" fill="#3D3E3C" transform="translate(0,0)"/>
<path d="" fill="#403D3D" transform="translate(0,0)"/>
<path d="" fill="#3C3E3B" transform="translate(0,0)"/>
<path d="" fill="#40403D" transform="translate(0,0)"/>
<path d="" fill="#3D3C3A" transform="translate(0,0)"/>
<path d="" fill="#3F3F3D" transform="translate(0,0)"/>
<path d="" fill="#3B3C3A" transform="translate(0,0)"/>
<path d="" fill="#403D3B" transform="translate(0,0)"/>
<path d="" fill="#3C3B3A" transform="translate(0,0)"/>
<path d="" fill="#3D3C3A" transform="translate(0,0)"/>
<path d="" fill="#3D3D3B" transform="translate(0,0)"/>
<path d="" fill="#3C3D3A" transform="translate(0,0)"/>
<path d="" fill="#3B3939" transform="translate(0,0)"/>
<path d="" fill="#393837" transform="translate(0,0)"/>
<path d="" fill="#3D3C38" transform="translate(0,0)"/>
<path d="" fill="#3C3C3B" transform="translate(0,0)"/>
<path d="" fill="#3A3C3B" transform="translate(0,0)"/>
<path d="" fill="#3D3C39" transform="translate(0,0)"/>
<path d="" fill="#393938" transform="translate(0,0)"/>
<path d="" fill="#3D3E3C" transform="translate(0,0)"/>
<path d="" fill="#40403E" transform="translate(0,0)"/>
<path d="" fill="#3D3D3A" transform="translate(0,0)"/>
<path d="" fill="#3D3E3B" transform="translate(0,0)"/>
<path d="" fill="#3D3C3D" transform="translate(0,0)"/>
<path d="" fill="#3A3938" transform="translate(0,0)"/>
<path d="" fill="#393A36" transform="translate(0,0)"/>
<path d="" fill="#373634" transform="translate(0,0)"/>
<path d="" fill="#3F3E3E" transform="translate(0,0)"/>
<path d="" fill="#403F3C" transform="translate(0,0)"/>
<path d="" fill="#3F3F3C" transform="translate(0,0)"/>
<path d="" fill="#3B3937" transform="translate(0,0)"/>
<path d="" fill="#3F403F" transform="translate(0,0)"/>
<path d="" fill="#383638" transform="translate(0,0)"/>
<path d="" fill="#383837" transform="translate(0,0)"/>
<path d="" fill="#40413E" transform="translate(0,0)"/>
<path d="" fill="#393839" transform="translate(0,0)"/>
<path d="" fill="#3E3E3D" transform="translate(0,0)"/>
<path d="" fill="#3E403D" transform="translate(0,0)"/>
<path d="" fill="#413F3E" transform="translate(0,0)"/>
<path d="" fill="#3E3F3D" transform="translate(0,0)"/>
<path d="" fill="#41413F" transform="translate(0,0)"/>
<path d="" fill="#3E403F" transform="translate(0,0)"/>
<path d="" fill="#3B3C3B" transform="translate(0,0)"/>
<path d="" fill="#3F3F3E" transform="translate(0,0)"/>
<path d="" fill="#3C3B3B" transform="translate(0,0)"/>
<path d="" fill="#41423E" transform="translate(0,0)"/>
<path d="" fill="#3D3E3C" transform="translate(0,0)"/>
<path d="" fill="#40403D" transform="translate(0,0)"/>
<path d="" fill="#3F3B3C" transform="translate(0,0)"/>
<path d="" fill="#3D3B3C" transform="translate(0,0)"/>
<path d="" fill="#40413D" transform="translate(0,0)"/>
<path d="" fill="#3F4140" transform="translate(0,0)"/>
<path d="" fill="#3D3D3C" transform="translate(0,0)"/>
<path d="" fill="#3C3D3C" transform="translate(0,0)"/>
<path d="" fill="#3B3937" transform="translate(0,0)"/>
<path d="" fill="#484A49" transform="translate(0,0)"/>
<path d="" fill="#525253" transform="translate(0,0)"/>
<path d="" fill="#3B3D3A" transform="translate(0,0)"/>
<path d="" fill="#37393A" transform="translate(0,0)"/>
<path d="" fill="#3F3F3E" transform="translate(0,0)"/>
<path d="" fill="#3A3938" transform="translate(0,0)"/>
<path d="" fill="#373835" transform="translate(0,0)"/>
<path d="" fill="#3B3D38" transform="translate(0,0)"/>
<path d="" fill="#3B3C3A" transform="translate(0,0)"/>
<path d="" fill="#3C3C3B" transform="translate(0,0)"/>
<path d="" fill="#3C3B39" transform="translate(0,0)"/>
<path d="" fill="#3B3937" transform="translate(0,0)"/>
<path d="" fill="#3A3939" transform="translate(0,0)"/>
<path d="" fill="#3B393A" transform="translate(0,0)"/>
<path d="" fill="#3C3F3B" transform="translate(0,0)"/>
<path d="" fill="#403F3D" transform="translate(0,0)"/>
<path d="" fill="#3C3E3A" transform="translate(0,0)"/>
<path d="" fill="#3C3A3A" transform="translate(0,0)"/>
<path d="" fill="#403E3E" transform="translate(0,0)"/>
<path d="" fill="#343434" transform="translate(0,0)"/>
<path d="" fill="#383837" transform="translate(0,0)"/>
<path d="" fill="#3C3B3A" transform="translate(0,0)"/>
<path d="" fill="#3A3B39" transform="translate(0,0)"/>
<path d="" fill="#3C3B3A" transform="translate(0,0)"/>
<path d="" fill="#3B3B3A" transform="translate(0,0)"/>
<path d="" fill="#393A3A" transform="translate(0,0)"/>
<path d="" fill="#3C3A3C" transform="translate(0,0)"/>
<path d="" fill="#3B3D3B" transform="translate(0,0)"/>
<path d="" fill="#3B3D3A" transform="translate(0,0)"/>
<path d="" fill="#3C3A3C" transform="translate(0,0)"/>
<path d="" fill="#3A3839" transform="translate(0,0)"/>
<path d="" fill="#3D3F3E" transform="translate(0,0)"/>
<path d="" fill="#3A3B3A" transform="translate(0,0)"/>
<path d="" fill="#3C3D3A" transform="translate(0,0)"/>
<path d="" fill="#40403F" transform="translate(0,0)"/>
<path d="" fill="#40403C" transform="translate(0,0)"/>
<path d="" fill="#3C3B3A" transform="translate(0,0)"/>
<path d="" fill="#3E403D" transform="translate(0,0)"/>
<path d="" fill="#3E3D3C" transform="translate(0,0)"/>
<path d="" fill="#41413F" transform="translate(0,0)"/>
<path d="" fill="#3B3C3D" transform="translate(0,0)"/>
<path d="" fill="#3E413E" transform="translate(0,0)"/>
<path d="" fill="#3E3F3E" transform="translate(0,0)"/>
<path d="" fill="#41403E" transform="translate(0,0)"/>
<path d="" fill="#3D3E3B" transform="translate(0,0)"/>
<path d="" fill="#3C3B37" transform="translate(0,0)"/>
<path d="" fill="#3E3C3B" transform="translate(0,0)"/>
<path d="" fill="#41403C" transform="translate(0,0)"/>
<path d="" fill="#3F3F3D" transform="translate(0,0)"/>
<path d="" fill="#403D3B" transform="translate(0,0)"/>
<path d="" fill="#3C3F3D" transform="translate(0,0)"/>
<path d="" fill="#3E3B3C" transform="translate(0,0)"/>
<path d="" fill="#3D3C3D" transform="translate(0,0)"/>
<path d="" fill="#3A3E3B" transform="translate(0,0)"/>
<path d="" fill="#3B3A38" transform="translate(0,0)"/>
<path d="" fill="#424240" transform="translate(0,0)"/>
<path d="" fill="#3F403D" transform="translate(0,0)"/>
<path d="" fill="#3F413E" transform="translate(0,0)"/>
<path d="" fill="#3F3E3B" transform="translate(0,0)"/>
<path d="" fill="#3C3B3C" transform="translate(0,0)"/>
<path d="" fill="#3F3F3B" transform="translate(0,0)"/>
<path d="" fill="#3E3D3D" transform="translate(0,0)"/>
<path d="" fill="#40403F" transform="translate(0,0)"/>
<path d="" fill="#43423F" transform="translate(0,0)"/>
<path d="" fill="#413F3C" transform="translate(0,0)"/>
<path d="" fill="#41423F" transform="translate(0,0)"/>
</svg>
